<?xml version="1.0" encoding="utf-8" standalone="no"?>
<!DOCTYPE svg PUBLIC "-//W3C//DTD SVG 1.1//EN"
  "http://www.w3.org/Graphics/SVG/1.1/DTD/svg11.dtd">
<svg xmlns:xlink="http://www.w3.org/1999/xlink" width="460.8pt" height="345.6pt" viewBox="0 0 460.8 345.6" xmlns="http://www.w3.org/2000/svg" version="1.1">
 <metadata>
  <rdf:RDF xmlns:dc="http://purl.org/dc/elements/1.1/" xmlns:cc="http://creativecommons.org/ns#" xmlns:rdf="http://www.w3.org/1999/02/22-rdf-syntax-ns#">
   <cc:Work>
    <dc:type rdf:resource="http://purl.org/dc/dcmitype/StillImage"/>
    <dc:date>2024-10-21T22:31:22.656476</dc:date>
    <dc:format>image/svg+xml</dc:format>
    <dc:creator>
     <cc:Agent>
      <dc:title>Matplotlib v3.7.1, https://matplotlib.org/</dc:title>
     </cc:Agent>
    </dc:creator>
   </cc:Work>
  </rdf:RDF>
 </metadata>
 <defs>
  <style type="text/css">*{stroke-linejoin: round; stroke-linecap: butt}</style>
 </defs>
 <g id="figure_1">
  <g id="patch_1">
   <path d="M 0 345.6 
L 460.8 345.6 
L 460.8 0 
L 0 0 
z
" style="fill: #ffffff"/>
  </g>
  <g id="axes_1">
   <g id="patch_2">
    <path d="M 57.6 307.584 
L 414.72 307.584 
L 414.72 41.472 
L 57.6 41.472 
z
" style="fill: #ffffff"/>
   </g>
   <g id="PathCollection_1">
    <defs>
     <path id="ma37c2ee60f" d="M 0 3 
C 0.795609 3 1.55874 2.683901 2.12132 2.12132 
C 2.683901 1.55874 3 0.795609 3 0 
C 3 -0.795609 2.683901 -1.55874 2.12132 -2.12132 
C 1.55874 -2.683901 0.795609 -3 0 -3 
C -0.795609 -3 -1.55874 -2.683901 -2.12132 -2.12132 
C -2.683901 -1.55874 -3 -0.795609 -3 0 
C -3 0.795609 -2.683901 1.55874 -2.12132 2.12132 
C -1.55874 2.683901 -0.795609 3 0 3 
z
" style="stroke: #808080"/>
    </defs>
    <g clip-path="url(#p8994ee7b34)">
     <use xlink:href="#ma37c2ee60f" x="152.960003" y="281.03809" style="fill: #808080; stroke: #808080"/>
     <use xlink:href="#ma37c2ee60f" x="134.341817" y="282.595764" style="fill: #808080; stroke: #808080"/>
     <use xlink:href="#ma37c2ee60f" x="207.650911" y="280.590673" style="fill: #808080; stroke: #808080"/>
     <use xlink:href="#ma37c2ee60f" x="105.25091" y="289.605296" style="fill: #808080; stroke: #808080"/>
     <use xlink:href="#ma37c2ee60f" x="151.214548" y="276.514207" style="fill: #808080; stroke: #808080"/>
     <use xlink:href="#ma37c2ee60f" x="187.287274" y="280.20954" style="fill: #808080; stroke: #808080"/>
     <use xlink:href="#ma37c2ee60f" x="166.341817" y="281.319797" style="fill: #808080; stroke: #808080"/>
     <use xlink:href="#ma37c2ee60f" x="165.759997" y="281.054661" style="fill: #808080; stroke: #808080"/>
     <use xlink:href="#ma37c2ee60f" x="132.014546" y="278.685008" style="fill: #808080; stroke: #808080"/>
     <use xlink:href="#ma37c2ee60f" x="223.941816" y="285.379691" style="fill: #808080; stroke: #808080"/>
     <use xlink:href="#ma37c2ee60f" x="221.614545" y="289.787577" style="fill: #808080; stroke: #808080"/>
     <use xlink:href="#ma37c2ee60f" x="226.850907" y="283.722591" style="fill: #808080; stroke: #808080"/>
     <use xlink:href="#ma37c2ee60f" x="157.03273" y="276.994766" style="fill: #808080; stroke: #808080"/>
     <use xlink:href="#ma37c2ee60f" x="200.669088" y="283.656307" style="fill: #808080; stroke: #808080"/>
     <use xlink:href="#ma37c2ee60f" x="398.487273" y="265.859056" style="fill: #808080; stroke: #808080"/>
     <use xlink:href="#ma37c2ee60f" x="144.23273" y="272.918301" style="fill: #808080; stroke: #808080"/>
     <use xlink:href="#ma37c2ee60f" x="189.614545" y="284.186579" style="fill: #808080; stroke: #808080"/>
     <use xlink:href="#ma37c2ee60f" x="81.978182" y="281.651217" style="fill: #808080; stroke: #808080"/>
     <use xlink:href="#ma37c2ee60f" x="186.705454" y="283.904872" style="fill: #808080; stroke: #808080"/>
     <use xlink:href="#ma37c2ee60f" x="160.523635" y="278.966715" style="fill: #808080; stroke: #808080"/>
     <use xlink:href="#ma37c2ee60f" x="296.08728" y="282.247773" style="fill: #808080; stroke: #808080"/>
     <use xlink:href="#ma37c2ee60f" x="166.341817" y="286.605945" style="fill: #808080; stroke: #808080"/>
     <use xlink:href="#ma37c2ee60f" x="212.887272" y="275.751941" style="fill: #808080; stroke: #808080"/>
     <use xlink:href="#ma37c2ee60f" x="161.687276" y="281.932924" style="fill: #808080; stroke: #808080"/>
     <use xlink:href="#ma37c2ee60f" x="154.705453" y="271.211488" style="fill: #808080; stroke: #808080"/>
     <use xlink:href="#ma37c2ee60f" x="181.469092" y="249.752045" style="fill: #808080; stroke: #808080"/>
     <use xlink:href="#ma37c2ee60f" x="164.596367" y="279.960975" style="fill: #808080; stroke: #808080"/>
     <use xlink:href="#ma37c2ee60f" x="141.32364" y="235.484416" style="fill: #808080; stroke: #808080"/>
     <use xlink:href="#ma37c2ee60f" x="165.178188" y="291.295538" style="fill: #808080; stroke: #808080"/>
     <use xlink:href="#ma37c2ee60f" x="177.978181" y="274.459404" style="fill: #808080; stroke: #808080"/>
     <use xlink:href="#ma37c2ee60f" x="153.541818" y="282.214631" style="fill: #808080; stroke: #808080"/>
     <use xlink:href="#ma37c2ee60f" x="157.614544" y="272.785733" style="fill: #808080; stroke: #808080"/>
     <use xlink:href="#ma37c2ee60f" x="143.06909" y="292.107516" style="fill: #808080; stroke: #808080"/>
     <use xlink:href="#ma37c2ee60f" x="170.414549" y="285.445975" style="fill: #808080; stroke: #808080"/>
     <use xlink:href="#ma37c2ee60f" x="169.250908" y="285.976247" style="fill: #808080; stroke: #808080"/>
     <use xlink:href="#ma37c2ee60f" x="176.232731" y="289.621867" style="fill: #808080; stroke: #808080"/>
     <use xlink:href="#ma37c2ee60f" x="134.341817" y="276.945053" style="fill: #808080; stroke: #808080"/>
     <use xlink:href="#ma37c2ee60f" x="183.214543" y="269.786382" style="fill: #808080; stroke: #808080"/>
     <use xlink:href="#ma37c2ee60f" x="177.396361" y="287.434495" style="fill: #808080; stroke: #808080"/>
     <use xlink:href="#ma37c2ee60f" x="177.978181" y="284.932274" style="fill: #808080; stroke: #808080"/>
     <use xlink:href="#ma37c2ee60f" x="151.214548" y="277.044479" style="fill: #808080; stroke: #808080"/>
     <use xlink:href="#ma37c2ee60f" x="150.632727" y="290.632698" style="fill: #808080; stroke: #808080"/>
     <use xlink:href="#ma37c2ee60f" x="144.814545" y="283.755733" style="fill: #808080; stroke: #808080"/>
     <use xlink:href="#ma37c2ee60f" x="158.778185" y="285.677969" style="fill: #808080; stroke: #808080"/>
     <use xlink:href="#ma37c2ee60f" x="166.923638" y="271.327485" style="fill: #808080; stroke: #808080"/>
     <use xlink:href="#ma37c2ee60f" x="130.269091" y="289.771006" style="fill: #808080; stroke: #808080"/>
     <use xlink:href="#ma37c2ee60f" x="184.960004" y="286.340809" style="fill: #808080; stroke: #808080"/>
     <use xlink:href="#ma37c2ee60f" x="145.396366" y="279.496987" style="fill: #808080; stroke: #808080"/>
     <use xlink:href="#ma37c2ee60f" x="163.432726" y="286.224812" style="fill: #808080; stroke: #808080"/>
     <use xlink:href="#ma37c2ee60f" x="171.578179" y="279.795265" style="fill: #808080; stroke: #808080"/>
     <use xlink:href="#ma37c2ee60f" x="120.378182" y="274.840536" style="fill: #808080; stroke: #808080"/>
     <use xlink:href="#ma37c2ee60f" x="166.341817" y="284.004298" style="fill: #808080; stroke: #808080"/>
     <use xlink:href="#ma37c2ee60f" x="184.378183" y="281.452365" style="fill: #808080; stroke: #808080"/>
     <use xlink:href="#ma37c2ee60f" x="182.632733" y="284.36886" style="fill: #808080; stroke: #808080"/>
     <use xlink:href="#ma37c2ee60f" x="163.432726" y="285.445975" style="fill: #808080; stroke: #808080"/>
     <use xlink:href="#ma37c2ee60f" x="186.705454" y="286.257954" style="fill: #808080; stroke: #808080"/>
     <use xlink:href="#ma37c2ee60f" x="234.41455" y="260.62262" style="fill: #808080; stroke: #808080"/>
     <use xlink:href="#ma37c2ee60f" x="216.378184" y="287.301927" style="fill: #808080; stroke: #808080"/>
     <use xlink:href="#ma37c2ee60f" x="158.196365" y="276.514207" style="fill: #808080; stroke: #808080"/>
     <use xlink:href="#ma37c2ee60f" x="144.23273" y="265.577349" style="fill: #808080; stroke: #808080"/>
     <use xlink:href="#ma37c2ee60f" x="189.032724" y="279.38099" style="fill: #808080; stroke: #808080"/>
     <use xlink:href="#ma37c2ee60f" x="202.99637" y="294.941157" style="fill: #808080; stroke: #808080"/>
     <use xlink:href="#ma37c2ee60f" x="157.03273" y="286.340809" style="fill: #808080; stroke: #808080"/>
     <use xlink:href="#ma37c2ee60f" x="147.723636" y="275.867938" style="fill: #808080; stroke: #808080"/>
     <use xlink:href="#ma37c2ee60f" x="130.850911" y="290.185281" style="fill: #808080; stroke: #808080"/>
     <use xlink:href="#ma37c2ee60f" x="173.90546" y="284.70028" style="fill: #808080; stroke: #808080"/>
     <use xlink:href="#ma37c2ee60f" x="129.105455" y="277.856458" style="fill: #808080; stroke: #808080"/>
     <use xlink:href="#ma37c2ee60f" x="161.687276" y="278.502727" style="fill: #808080; stroke: #808080"/>
     <use xlink:href="#ma37c2ee60f" x="110.487274" y="284.683709" style="fill: #808080; stroke: #808080"/>
     <use xlink:href="#ma37c2ee60f" x="143.06909" y="283.855159" style="fill: #808080; stroke: #808080"/>
     <use xlink:href="#ma37c2ee60f" x="147.141821" y="285.959676" style="fill: #808080; stroke: #808080"/>
     <use xlink:href="#ma37c2ee60f" x="162.850911" y="286.589374" style="fill: #808080; stroke: #808080"/>
     <use xlink:href="#ma37c2ee60f" x="145.396366" y="289.240734" style="fill: #808080; stroke: #808080"/>
     <use xlink:href="#ma37c2ee60f" x="159.94182" y="282.761474" style="fill: #808080; stroke: #808080"/>
     <use xlink:href="#ma37c2ee60f" x="73.832727" y="273.166866" style="fill: #808080; stroke: #808080"/>
     <use xlink:href="#ma37c2ee60f" x="166.923638" y="284.087153" style="fill: #808080; stroke: #808080"/>
     <use xlink:href="#ma37c2ee60f" x="158.778185" y="276.646775" style="fill: #808080; stroke: #808080"/>
     <use xlink:href="#ma37c2ee60f" x="146.560001" y="287.583634" style="fill: #808080; stroke: #808080"/>
     <use xlink:href="#ma37c2ee60f" x="135.505458" y="286.904223" style="fill: #808080; stroke: #808080"/>
     <use xlink:href="#ma37c2ee60f" x="122.705453" y="281.004948" style="fill: #808080; stroke: #808080"/>
     <use xlink:href="#ma37c2ee60f" x="172.74182" y="283.391171" style="fill: #808080; stroke: #808080"/>
     <use xlink:href="#ma37c2ee60f" x="163.432726" y="291.875522" style="fill: #808080; stroke: #808080"/>
     <use xlink:href="#ma37c2ee60f" x="153.541818" y="289.323589" style="fill: #808080; stroke: #808080"/>
     <use xlink:href="#ma37c2ee60f" x="125.032729" y="281.502078" style="fill: #808080; stroke: #808080"/>
     <use xlink:href="#ma37c2ee60f" x="126.196364" y="277.674177" style="fill: #808080; stroke: #808080"/>
     <use xlink:href="#ma37c2ee60f" x="161.105456" y="269.388678" style="fill: #808080; stroke: #808080"/>
     <use xlink:href="#ma37c2ee60f" x="154.705453" y="230.529688" style="fill: #808080; stroke: #808080"/>
     <use xlink:href="#ma37c2ee60f" x="135.505458" y="277.044479" style="fill: #808080; stroke: #808080"/>
     <use xlink:href="#ma37c2ee60f" x="163.432726" y="270.184086" style="fill: #808080; stroke: #808080"/>
     <use xlink:href="#ma37c2ee60f" x="166.341817" y="284.070582" style="fill: #808080; stroke: #808080"/>
     <use xlink:href="#ma37c2ee60f" x="120.960003" y="267.831004" style="fill: #808080; stroke: #808080"/>
     <use xlink:href="#ma37c2ee60f" x="214.050913" y="285.379691" style="fill: #808080; stroke: #808080"/>
     <use xlink:href="#ma37c2ee60f" x="160.523635" y="280.259253" style="fill: #808080; stroke: #808080"/>
     <use xlink:href="#ma37c2ee60f" x="169.250908" y="279.977546" style="fill: #808080; stroke: #808080"/>
     <use xlink:href="#ma37c2ee60f" x="112.814545" y="277.922742" style="fill: #808080; stroke: #808080"/>
     <use xlink:href="#ma37c2ee60f" x="138.414549" y="264.235098" style="fill: #808080; stroke: #808080"/>
     <use xlink:href="#ma37c2ee60f" x="224.523636" y="281.966066" style="fill: #808080; stroke: #808080"/>
     <use xlink:href="#ma37c2ee60f" x="195.432727" y="282.744903" style="fill: #808080; stroke: #808080"/>
     <use xlink:href="#ma37c2ee60f" x="182.632733" y="278.419872" style="fill: #808080; stroke: #808080"/>
     <use xlink:href="#ma37c2ee60f" x="158.778185" y="287.235643" style="fill: #808080; stroke: #808080"/>
     <use xlink:href="#ma37c2ee60f" x="123.287273" y="276.795914" style="fill: #808080; stroke: #808080"/>
     <use xlink:href="#ma37c2ee60f" x="125.614544" y="276.133074" style="fill: #808080; stroke: #808080"/>
     <use xlink:href="#ma37c2ee60f" x="181.469092" y="278.55244" style="fill: #808080; stroke: #808080"/>
     <use xlink:href="#ma37c2ee60f" x="91.287273" y="273.498286" style="fill: #808080; stroke: #808080"/>
     <use xlink:href="#ma37c2ee60f" x="199.505458" y="263.555687" style="fill: #808080; stroke: #808080"/>
     <use xlink:href="#ma37c2ee60f" x="134.341817" y="268.59327" style="fill: #808080; stroke: #808080"/>
     <use xlink:href="#ma37c2ee60f" x="158.778185" y="289.688151" style="fill: #808080; stroke: #808080"/>
     <use xlink:href="#ma37c2ee60f" x="130.269091" y="189.151906" style="fill: #808080; stroke: #808080"/>
     <use xlink:href="#ma37c2ee60f" x="171.578179" y="283.291745" style="fill: #808080; stroke: #808080"/>
     <use xlink:href="#ma37c2ee60f" x="264.669089" y="289.041882" style="fill: #808080; stroke: #808080"/>
     <use xlink:href="#ma37c2ee60f" x="203.578179" y="269.024116" style="fill: #808080; stroke: #808080"/>
     <use xlink:href="#ma37c2ee60f" x="135.505458" y="275.801654" style="fill: #808080; stroke: #808080"/>
     <use xlink:href="#ma37c2ee60f" x="143.06909" y="282.181489" style="fill: #808080; stroke: #808080"/>
     <use xlink:href="#ma37c2ee60f" x="192.523636" y="277.856458" style="fill: #808080; stroke: #808080"/>
     <use xlink:href="#ma37c2ee60f" x="109.905454" y="285.926534" style="fill: #808080; stroke: #808080"/>
     <use xlink:href="#ma37c2ee60f" x="112.232727" y="280.70667" style="fill: #808080; stroke: #808080"/>
     <use xlink:href="#ma37c2ee60f" x="139.578184" y="272.156035" style="fill: #808080; stroke: #808080"/>
     <use xlink:href="#ma37c2ee60f" x="152.378183" y="267.532726" style="fill: #808080; stroke: #808080"/>
     <use xlink:href="#ma37c2ee60f" x="129.687276" y="282.678619" style="fill: #808080; stroke: #808080"/>
     <use xlink:href="#ma37c2ee60f" x="108.160001" y="283.971156" style="fill: #808080; stroke: #808080"/>
     <use xlink:href="#ma37c2ee60f" x="143.06909" y="278.287304" style="fill: #808080; stroke: #808080"/>
     <use xlink:href="#ma37c2ee60f" x="173.32364" y="281.734072" style="fill: #808080; stroke: #808080"/>
     <use xlink:href="#ma37c2ee60f" x="158.778185" y="278.950144" style="fill: #808080; stroke: #808080"/>
     <use xlink:href="#ma37c2ee60f" x="208.232731" y="270.382938" style="fill: #808080; stroke: #808080"/>
     <use xlink:href="#ma37c2ee60f" x="278.632735" y="247.117257" style="fill: #808080; stroke: #808080"/>
     <use xlink:href="#ma37c2ee60f" x="205.905461" y="267.698436" style="fill: #808080; stroke: #808080"/>
     <use xlink:href="#ma37c2ee60f" x="143.06909" y="292.107516" style="fill: #808080; stroke: #808080"/>
     <use xlink:href="#ma37c2ee60f" x="329.250921" y="271.012636" style="fill: #808080; stroke: #808080"/>
     <use xlink:href="#ma37c2ee60f" x="83.141818" y="293.217773" style="fill: #808080; stroke: #808080"/>
     <use xlink:href="#ma37c2ee60f" x="177.978181" y="291.577244" style="fill: #808080; stroke: #808080"/>
     <use xlink:href="#ma37c2ee60f" x="164.596367" y="276.978195" style="fill: #808080; stroke: #808080"/>
     <use xlink:href="#ma37c2ee60f" x="158.778185" y="287.103075" style="fill: #808080; stroke: #808080"/>
     <use xlink:href="#ma37c2ee60f" x="202.99637" y="295.488" style="fill: #808080; stroke: #808080"/>
     <use xlink:href="#ma37c2ee60f" x="207.069091" y="264.367666" style="fill: #808080; stroke: #808080"/>
     <use xlink:href="#ma37c2ee60f" x="220.450916" y="281.253513" style="fill: #808080; stroke: #808080"/>
     <use xlink:href="#ma37c2ee60f" x="228.014548" y="269.670385" style="fill: #808080; stroke: #808080"/>
     <use xlink:href="#ma37c2ee60f" x="186.705454" y="286.075673" style="fill: #808080; stroke: #808080"/>
     <use xlink:href="#ma37c2ee60f" x="325.17819" y="264.516805" style="fill: #808080; stroke: #808080"/>
     <use xlink:href="#ma37c2ee60f" x="166.341817" y="273.117153" style="fill: #808080; stroke: #808080"/>
     <use xlink:href="#ma37c2ee60f" x="138.414549" y="281.86664" style="fill: #808080; stroke: #808080"/>
     <use xlink:href="#ma37c2ee60f" x="215.214543" y="271.112062" style="fill: #808080; stroke: #808080"/>
     <use xlink:href="#ma37c2ee60f" x="223.360006" y="291.67667" style="fill: #808080; stroke: #808080"/>
     <use xlink:href="#ma37c2ee60f" x="329.832731" y="280.458105" style="fill: #808080; stroke: #808080"/>
     <use xlink:href="#ma37c2ee60f" x="200.669088" y="277.077621" style="fill: #808080; stroke: #808080"/>
     <use xlink:href="#ma37c2ee60f" x="200.669088" y="276.911911" style="fill: #808080; stroke: #808080"/>
     <use xlink:href="#ma37c2ee60f" x="275.141812" y="272.918301" style="fill: #808080; stroke: #808080"/>
     <use xlink:href="#ma37c2ee60f" x="147.141821" y="266.93617" style="fill: #808080; stroke: #808080"/>
     <use xlink:href="#ma37c2ee60f" x="134.923637" y="272.354887" style="fill: #808080; stroke: #808080"/>
     <use xlink:href="#ma37c2ee60f" x="183.796363" y="272.338316" style="fill: #808080; stroke: #808080"/>
     <use xlink:href="#ma37c2ee60f" x="236.74182" y="283.159177" style="fill: #808080; stroke: #808080"/>
     <use xlink:href="#ma37c2ee60f" x="326.341831" y="275.470234" style="fill: #808080; stroke: #808080"/>
     <use xlink:href="#ma37c2ee60f" x="226.850907" y="278.784434" style="fill: #808080; stroke: #808080"/>
     <use xlink:href="#ma37c2ee60f" x="162.269091" y="286.423664" style="fill: #808080; stroke: #808080"/>
     <use xlink:href="#ma37c2ee60f" x="158.196365" y="272.769162" style="fill: #808080; stroke: #808080"/>
     <use xlink:href="#ma37c2ee60f" x="234.99637" y="273.200008" style="fill: #808080; stroke: #808080"/>
     <use xlink:href="#ma37c2ee60f" x="160.523635" y="282.69519" style="fill: #808080; stroke: #808080"/>
     <use xlink:href="#ma37c2ee60f" x="187.287274" y="281.336368" style="fill: #808080; stroke: #808080"/>
     <use xlink:href="#ma37c2ee60f" x="316.450917" y="279.944404" style="fill: #808080; stroke: #808080"/>
     <use xlink:href="#ma37c2ee60f" x="184.960004" y="275.967364" style="fill: #808080; stroke: #808080"/>
     <use xlink:href="#ma37c2ee60f" x="165.178188" y="280.507818" style="fill: #808080; stroke: #808080"/>
     <use xlink:href="#ma37c2ee60f" x="196.014547" y="248.343511" style="fill: #808080; stroke: #808080"/>
     <use xlink:href="#ma37c2ee60f" x="242.560002" y="287.086504" style="fill: #808080; stroke: #808080"/>
     <use xlink:href="#ma37c2ee60f" x="202.414549" y="287.103075" style="fill: #808080; stroke: #808080"/>
     <use xlink:href="#ma37c2ee60f" x="204.16" y="113.041312" style="fill: #808080; stroke: #808080"/>
     <use xlink:href="#ma37c2ee60f" x="146.560001" y="283.457455" style="fill: #808080; stroke: #808080"/>
     <use xlink:href="#ma37c2ee60f" x="116.305456" y="238.765474" style="fill: #808080; stroke: #808080"/>
     <use xlink:href="#ma37c2ee60f" x="350.778177" y="274.293694" style="fill: #808080; stroke: #808080"/>
     <use xlink:href="#ma37c2ee60f" x="175.65091" y="285.810537" style="fill: #808080; stroke: #808080"/>
     <use xlink:href="#ma37c2ee60f" x="175.65091" y="287.368211" style="fill: #808080; stroke: #808080"/>
     <use xlink:href="#ma37c2ee60f" x="197.178188" y="274.509117" style="fill: #808080; stroke: #808080"/>
     <use xlink:href="#ma37c2ee60f" x="194.850906" y="286.987078" style="fill: #808080; stroke: #808080"/>
     <use xlink:href="#ma37c2ee60f" x="227.432727" y="278.867289" style="fill: #808080; stroke: #808080"/>
     <use xlink:href="#ma37c2ee60f" x="248.378184" y="290.185281" style="fill: #808080; stroke: #808080"/>
     <use xlink:href="#ma37c2ee60f" x="183.796363" y="53.568" style="fill: #808080; stroke: #808080"/>
     <use xlink:href="#ma37c2ee60f" x="161.687276" y="284.435144" style="fill: #808080; stroke: #808080"/>
     <use xlink:href="#ma37c2ee60f" x="183.796363" y="272.222319" style="fill: #808080; stroke: #808080"/>
     <use xlink:href="#ma37c2ee60f" x="240.232732" y="259.280369" style="fill: #808080; stroke: #808080"/>
     <use xlink:href="#ma37c2ee60f" x="308.305453" y="261.931729" style="fill: #808080; stroke: #808080"/>
     <use xlink:href="#ma37c2ee60f" x="150.632727" y="286.141957" style="fill: #808080; stroke: #808080"/>
     <use xlink:href="#ma37c2ee60f" x="135.505458" y="291.328679" style="fill: #808080; stroke: #808080"/>
     <use xlink:href="#ma37c2ee60f" x="133.760002" y="291.908664" style="fill: #808080; stroke: #808080"/>
     <use xlink:href="#ma37c2ee60f" x="100.596363" y="291.477818" style="fill: #808080; stroke: #808080"/>
     <use xlink:href="#ma37c2ee60f" x="142.487275" y="289.34016" style="fill: #808080; stroke: #808080"/>
     <use xlink:href="#ma37c2ee60f" x="113.978183" y="287.782486" style="fill: #808080; stroke: #808080"/>
     <use xlink:href="#ma37c2ee60f" x="106.996363" y="289.124737" style="fill: #808080; stroke: #808080"/>
     <use xlink:href="#ma37c2ee60f" x="144.814545" y="288.67732" style="fill: #808080; stroke: #808080"/>
     <use xlink:href="#ma37c2ee60f" x="132.596367" y="290.367562" style="fill: #808080; stroke: #808080"/>
     <use xlink:href="#ma37c2ee60f" x="113.978183" y="291.875522" style="fill: #808080; stroke: #808080"/>
     <use xlink:href="#ma37c2ee60f" x="144.23273" y="287.68306" style="fill: #808080; stroke: #808080"/>
     <use xlink:href="#ma37c2ee60f" x="145.396366" y="290.566414" style="fill: #808080; stroke: #808080"/>
     <use xlink:href="#ma37c2ee60f" x="87.796364" y="286.639087" style="fill: #808080; stroke: #808080"/>
     <use xlink:href="#ma37c2ee60f" x="149.469092" y="288.113906" style="fill: #808080; stroke: #808080"/>
     <use xlink:href="#ma37c2ee60f" x="133.178182" y="285.876821" style="fill: #808080; stroke: #808080"/>
     <use xlink:href="#ma37c2ee60f" x="140.159999" y="290.897834" style="fill: #808080; stroke: #808080"/>
     <use xlink:href="#ma37c2ee60f" x="145.978181" y="290.036142" style="fill: #808080; stroke: #808080"/>
     <use xlink:href="#ma37c2ee60f" x="129.687276" y="292.356081" style="fill: #808080; stroke: #808080"/>
     <use xlink:href="#ma37c2ee60f" x="113.396365" y="280.955235" style="fill: #808080; stroke: #808080"/>
     <use xlink:href="#ma37c2ee60f" x="155.869094" y="283.291745" style="fill: #808080; stroke: #808080"/>
     <use xlink:href="#ma37c2ee60f" x="151.214548" y="293.66519" style="fill: #808080; stroke: #808080"/>
     <use xlink:href="#ma37c2ee60f" x="122.705453" y="290.848121" style="fill: #808080; stroke: #808080"/>
     <use xlink:href="#ma37c2ee60f" x="152.378183" y="291.759525" style="fill: #808080; stroke: #808080"/>
     <use xlink:href="#ma37c2ee60f" x="145.978181" y="287.053362" style="fill: #808080; stroke: #808080"/>
     <use xlink:href="#ma37c2ee60f" x="155.287274" y="287.252214" style="fill: #808080; stroke: #808080"/>
     <use xlink:href="#ma37c2ee60f" x="156.450909" y="285.793966" style="fill: #808080; stroke: #808080"/>
     <use xlink:href="#ma37c2ee60f" x="123.287273" y="283.772304" style="fill: #808080; stroke: #808080"/>
     <use xlink:href="#ma37c2ee60f" x="161.105456" y="290.483559" style="fill: #808080; stroke: #808080"/>
     <use xlink:href="#ma37c2ee60f" x="141.32364" y="288.279616" style="fill: #808080; stroke: #808080"/>
     <use xlink:href="#ma37c2ee60f" x="150.632727" y="289.986429" style="fill: #808080; stroke: #808080"/>
     <use xlink:href="#ma37c2ee60f" x="154.705453" y="288.809888" style="fill: #808080; stroke: #808080"/>
    </g>
   </g>
   <g id="matplotlib.axis_1">
    <g id="xtick_1">
     <g id="line2d_1">
      <defs>
       <path id="me020165cc8" d="M 0 0 
L 0 3.5 
" style="stroke: #000000; stroke-width: 0.8"/>
      </defs>
      <g>
       <use xlink:href="#me020165cc8" x="70.923636" y="307.584" style="stroke: #000000; stroke-width: 0.8"/>
      </g>
     </g>
     <g id="text_1">
      <!-- 0 -->
      <g transform="translate(67.742386 322.182437) scale(0.1 -0.1)">
       <defs>
        <path id="DejaVuSans-30" d="M 2034 4250 
Q 1547 4250 1301 3770 
Q 1056 3291 1056 2328 
Q 1056 1369 1301 889 
Q 1547 409 2034 409 
Q 2525 409 2770 889 
Q 3016 1369 3016 2328 
Q 3016 3291 2770 3770 
Q 2525 4250 2034 4250 
z
M 2034 4750 
Q 2819 4750 3233 4129 
Q 3647 3509 3647 2328 
Q 3647 1150 3233 529 
Q 2819 -91 2034 -91 
Q 1250 -91 836 529 
Q 422 1150 422 2328 
Q 422 3509 836 4129 
Q 1250 4750 2034 4750 
z
" transform="scale(0.015625)"/>
       </defs>
       <use xlink:href="#DejaVuSans-30"/>
      </g>
     </g>
    </g>
    <g id="xtick_2">
     <g id="line2d_2">
      <g>
       <use xlink:href="#me020165cc8" x="129.105455" y="307.584" style="stroke: #000000; stroke-width: 0.8"/>
      </g>
     </g>
     <g id="text_2">
      <!-- 10 -->
      <g transform="translate(122.742955 322.182437) scale(0.1 -0.1)">
       <defs>
        <path id="DejaVuSans-31" d="M 794 531 
L 1825 531 
L 1825 4091 
L 703 3866 
L 703 4441 
L 1819 4666 
L 2450 4666 
L 2450 531 
L 3481 531 
L 3481 0 
L 794 0 
L 794 531 
z
" transform="scale(0.015625)"/>
       </defs>
       <use xlink:href="#DejaVuSans-31"/>
       <use xlink:href="#DejaVuSans-30" x="63.623047"/>
      </g>
     </g>
    </g>
    <g id="xtick_3">
     <g id="line2d_3">
      <g>
       <use xlink:href="#me020165cc8" x="187.287274" y="307.584" style="stroke: #000000; stroke-width: 0.8"/>
      </g>
     </g>
     <g id="text_3">
      <!-- 20 -->
      <g transform="translate(180.924774 322.182437) scale(0.1 -0.1)">
       <defs>
        <path id="DejaVuSans-32" d="M 1228 531 
L 3431 531 
L 3431 0 
L 469 0 
L 469 531 
Q 828 903 1448 1529 
Q 2069 2156 2228 2338 
Q 2531 2678 2651 2914 
Q 2772 3150 2772 3378 
Q 2772 3750 2511 3984 
Q 2250 4219 1831 4219 
Q 1534 4219 1204 4116 
Q 875 4013 500 3803 
L 500 4441 
Q 881 4594 1212 4672 
Q 1544 4750 1819 4750 
Q 2544 4750 2975 4387 
Q 3406 4025 3406 3419 
Q 3406 3131 3298 2873 
Q 3191 2616 2906 2266 
Q 2828 2175 2409 1742 
Q 1991 1309 1228 531 
z
" transform="scale(0.015625)"/>
       </defs>
       <use xlink:href="#DejaVuSans-32"/>
       <use xlink:href="#DejaVuSans-30" x="63.623047"/>
      </g>
     </g>
    </g>
    <g id="xtick_4">
     <g id="line2d_4">
      <g>
       <use xlink:href="#me020165cc8" x="245.469093" y="307.584" style="stroke: #000000; stroke-width: 0.8"/>
      </g>
     </g>
     <g id="text_4">
      <!-- 30 -->
      <g transform="translate(239.106593 322.182437) scale(0.1 -0.1)">
       <defs>
        <path id="DejaVuSans-33" d="M 2597 2516 
Q 3050 2419 3304 2112 
Q 3559 1806 3559 1356 
Q 3559 666 3084 287 
Q 2609 -91 1734 -91 
Q 1441 -91 1130 -33 
Q 819 25 488 141 
L 488 750 
Q 750 597 1062 519 
Q 1375 441 1716 441 
Q 2309 441 2620 675 
Q 2931 909 2931 1356 
Q 2931 1769 2642 2001 
Q 2353 2234 1838 2234 
L 1294 2234 
L 1294 2753 
L 1863 2753 
Q 2328 2753 2575 2939 
Q 2822 3125 2822 3475 
Q 2822 3834 2567 4026 
Q 2313 4219 1838 4219 
Q 1578 4219 1281 4162 
Q 984 4106 628 3988 
L 628 4550 
Q 988 4650 1302 4700 
Q 1616 4750 1894 4750 
Q 2613 4750 3031 4423 
Q 3450 4097 3450 3541 
Q 3450 3153 3228 2886 
Q 3006 2619 2597 2516 
z
" transform="scale(0.015625)"/>
       </defs>
       <use xlink:href="#DejaVuSans-33"/>
       <use xlink:href="#DejaVuSans-30" x="63.623047"/>
      </g>
     </g>
    </g>
    <g id="xtick_5">
     <g id="line2d_5">
      <g>
       <use xlink:href="#me020165cc8" x="303.650912" y="307.584" style="stroke: #000000; stroke-width: 0.8"/>
      </g>
     </g>
     <g id="text_5">
      <!-- 40 -->
      <g transform="translate(297.288412 322.182437) scale(0.1 -0.1)">
       <defs>
        <path id="DejaVuSans-34" d="M 2419 4116 
L 825 1625 
L 2419 1625 
L 2419 4116 
z
M 2253 4666 
L 3047 4666 
L 3047 1625 
L 3713 1625 
L 3713 1100 
L 3047 1100 
L 3047 0 
L 2419 0 
L 2419 1100 
L 313 1100 
L 313 1709 
L 2253 4666 
z
" transform="scale(0.015625)"/>
       </defs>
       <use xlink:href="#DejaVuSans-34"/>
       <use xlink:href="#DejaVuSans-30" x="63.623047"/>
      </g>
     </g>
    </g>
    <g id="xtick_6">
     <g id="line2d_6">
      <g>
       <use xlink:href="#me020165cc8" x="361.832731" y="307.584" style="stroke: #000000; stroke-width: 0.8"/>
      </g>
     </g>
     <g id="text_6">
      <!-- 50 -->
      <g transform="translate(355.470231 322.182437) scale(0.1 -0.1)">
       <defs>
        <path id="DejaVuSans-35" d="M 691 4666 
L 3169 4666 
L 3169 4134 
L 1269 4134 
L 1269 2991 
Q 1406 3038 1543 3061 
Q 1681 3084 1819 3084 
Q 2600 3084 3056 2656 
Q 3513 2228 3513 1497 
Q 3513 744 3044 326 
Q 2575 -91 1722 -91 
Q 1428 -91 1123 -41 
Q 819 9 494 109 
L 494 744 
Q 775 591 1075 516 
Q 1375 441 1709 441 
Q 2250 441 2565 725 
Q 2881 1009 2881 1497 
Q 2881 1984 2565 2268 
Q 2250 2553 1709 2553 
Q 1456 2553 1204 2497 
Q 953 2441 691 2322 
L 691 4666 
z
" transform="scale(0.015625)"/>
       </defs>
       <use xlink:href="#DejaVuSans-35"/>
       <use xlink:href="#DejaVuSans-30" x="63.623047"/>
      </g>
     </g>
    </g>
    <g id="text_7">
     <!-- ROE -->
     <g transform="translate(225.590469 335.860562) scale(0.1 -0.1)">
      <defs>
       <path id="DejaVuSans-52" d="M 2841 2188 
Q 3044 2119 3236 1894 
Q 3428 1669 3622 1275 
L 4263 0 
L 3584 0 
L 2988 1197 
Q 2756 1666 2539 1819 
Q 2322 1972 1947 1972 
L 1259 1972 
L 1259 0 
L 628 0 
L 628 4666 
L 2053 4666 
Q 2853 4666 3247 4331 
Q 3641 3997 3641 3322 
Q 3641 2881 3436 2590 
Q 3231 2300 2841 2188 
z
M 1259 4147 
L 1259 2491 
L 2053 2491 
Q 2509 2491 2742 2702 
Q 2975 2913 2975 3322 
Q 2975 3731 2742 3939 
Q 2509 4147 2053 4147 
L 1259 4147 
z
" transform="scale(0.015625)"/>
       <path id="DejaVuSans-4f" d="M 2522 4238 
Q 1834 4238 1429 3725 
Q 1025 3213 1025 2328 
Q 1025 1447 1429 934 
Q 1834 422 2522 422 
Q 3209 422 3611 934 
Q 4013 1447 4013 2328 
Q 4013 3213 3611 3725 
Q 3209 4238 2522 4238 
z
M 2522 4750 
Q 3503 4750 4090 4092 
Q 4678 3434 4678 2328 
Q 4678 1225 4090 567 
Q 3503 -91 2522 -91 
Q 1538 -91 948 565 
Q 359 1222 359 2328 
Q 359 3434 948 4092 
Q 1538 4750 2522 4750 
z
" transform="scale(0.015625)"/>
       <path id="DejaVuSans-45" d="M 628 4666 
L 3578 4666 
L 3578 4134 
L 1259 4134 
L 1259 2753 
L 3481 2753 
L 3481 2222 
L 1259 2222 
L 1259 531 
L 3634 531 
L 3634 0 
L 628 0 
L 628 4666 
z
" transform="scale(0.015625)"/>
      </defs>
      <use xlink:href="#DejaVuSans-52"/>
      <use xlink:href="#DejaVuSans-4f" x="69.482422"/>
      <use xlink:href="#DejaVuSans-45" x="148.193359"/>
     </g>
    </g>
   </g>
   <g id="matplotlib.axis_2">
    <g id="ytick_1">
     <g id="line2d_7">
      <defs>
       <path id="m6af7657230" d="M 0 0 
L -3.5 0 
" style="stroke: #000000; stroke-width: 0.8"/>
      </defs>
      <g>
       <use xlink:href="#m6af7657230" x="57.6" y="299.183333" style="stroke: #000000; stroke-width: 0.8"/>
      </g>
     </g>
     <g id="text_8">
      <!-- 0 -->
      <g transform="translate(44.2375 302.982551) scale(0.1 -0.1)">
       <use xlink:href="#DejaVuSans-30"/>
      </g>
     </g>
    </g>
    <g id="ytick_2">
     <g id="line2d_8">
      <g>
       <use xlink:href="#m6af7657230" x="57.6" y="266.041337" style="stroke: #000000; stroke-width: 0.8"/>
      </g>
     </g>
     <g id="text_9">
      <!-- 2000 -->
      <g transform="translate(25.15 269.840555) scale(0.1 -0.1)">
       <use xlink:href="#DejaVuSans-32"/>
       <use xlink:href="#DejaVuSans-30" x="63.623047"/>
       <use xlink:href="#DejaVuSans-30" x="127.246094"/>
       <use xlink:href="#DejaVuSans-30" x="190.869141"/>
      </g>
     </g>
    </g>
    <g id="ytick_3">
     <g id="line2d_9">
      <g>
       <use xlink:href="#m6af7657230" x="57.6" y="232.899341" style="stroke: #000000; stroke-width: 0.8"/>
      </g>
     </g>
     <g id="text_10">
      <!-- 4000 -->
      <g transform="translate(25.15 236.698559) scale(0.1 -0.1)">
       <use xlink:href="#DejaVuSans-34"/>
       <use xlink:href="#DejaVuSans-30" x="63.623047"/>
       <use xlink:href="#DejaVuSans-30" x="127.246094"/>
       <use xlink:href="#DejaVuSans-30" x="190.869141"/>
      </g>
     </g>
    </g>
    <g id="ytick_4">
     <g id="line2d_10">
      <g>
       <use xlink:href="#m6af7657230" x="57.6" y="199.757344" style="stroke: #000000; stroke-width: 0.8"/>
      </g>
     </g>
     <g id="text_11">
      <!-- 6000 -->
      <g transform="translate(25.15 203.556563) scale(0.1 -0.1)">
       <defs>
        <path id="DejaVuSans-36" d="M 2113 2584 
Q 1688 2584 1439 2293 
Q 1191 2003 1191 1497 
Q 1191 994 1439 701 
Q 1688 409 2113 409 
Q 2538 409 2786 701 
Q 3034 994 3034 1497 
Q 3034 2003 2786 2293 
Q 2538 2584 2113 2584 
z
M 3366 4563 
L 3366 3988 
Q 3128 4100 2886 4159 
Q 2644 4219 2406 4219 
Q 1781 4219 1451 3797 
Q 1122 3375 1075 2522 
Q 1259 2794 1537 2939 
Q 1816 3084 2150 3084 
Q 2853 3084 3261 2657 
Q 3669 2231 3669 1497 
Q 3669 778 3244 343 
Q 2819 -91 2113 -91 
Q 1303 -91 875 529 
Q 447 1150 447 2328 
Q 447 3434 972 4092 
Q 1497 4750 2381 4750 
Q 2619 4750 2861 4703 
Q 3103 4656 3366 4563 
z
" transform="scale(0.015625)"/>
       </defs>
       <use xlink:href="#DejaVuSans-36"/>
       <use xlink:href="#DejaVuSans-30" x="63.623047"/>
       <use xlink:href="#DejaVuSans-30" x="127.246094"/>
       <use xlink:href="#DejaVuSans-30" x="190.869141"/>
      </g>
     </g>
    </g>
    <g id="ytick_5">
     <g id="line2d_11">
      <g>
       <use xlink:href="#m6af7657230" x="57.6" y="166.615348" style="stroke: #000000; stroke-width: 0.8"/>
      </g>
     </g>
     <g id="text_12">
      <!-- 8000 -->
      <g transform="translate(25.15 170.414567) scale(0.1 -0.1)">
       <defs>
        <path id="DejaVuSans-38" d="M 2034 2216 
Q 1584 2216 1326 1975 
Q 1069 1734 1069 1313 
Q 1069 891 1326 650 
Q 1584 409 2034 409 
Q 2484 409 2743 651 
Q 3003 894 3003 1313 
Q 3003 1734 2745 1975 
Q 2488 2216 2034 2216 
z
M 1403 2484 
Q 997 2584 770 2862 
Q 544 3141 544 3541 
Q 544 4100 942 4425 
Q 1341 4750 2034 4750 
Q 2731 4750 3128 4425 
Q 3525 4100 3525 3541 
Q 3525 3141 3298 2862 
Q 3072 2584 2669 2484 
Q 3125 2378 3379 2068 
Q 3634 1759 3634 1313 
Q 3634 634 3220 271 
Q 2806 -91 2034 -91 
Q 1263 -91 848 271 
Q 434 634 434 1313 
Q 434 1759 690 2068 
Q 947 2378 1403 2484 
z
M 1172 3481 
Q 1172 3119 1398 2916 
Q 1625 2713 2034 2713 
Q 2441 2713 2670 2916 
Q 2900 3119 2900 3481 
Q 2900 3844 2670 4047 
Q 2441 4250 2034 4250 
Q 1625 4250 1398 4047 
Q 1172 3844 1172 3481 
z
" transform="scale(0.015625)"/>
       </defs>
       <use xlink:href="#DejaVuSans-38"/>
       <use xlink:href="#DejaVuSans-30" x="63.623047"/>
       <use xlink:href="#DejaVuSans-30" x="127.246094"/>
       <use xlink:href="#DejaVuSans-30" x="190.869141"/>
      </g>
     </g>
    </g>
    <g id="ytick_6">
     <g id="line2d_12">
      <g>
       <use xlink:href="#m6af7657230" x="57.6" y="133.473352" style="stroke: #000000; stroke-width: 0.8"/>
      </g>
     </g>
     <g id="text_13">
      <!-- 10000 -->
      <g transform="translate(18.7875 137.272571) scale(0.1 -0.1)">
       <use xlink:href="#DejaVuSans-31"/>
       <use xlink:href="#DejaVuSans-30" x="63.623047"/>
       <use xlink:href="#DejaVuSans-30" x="127.246094"/>
       <use xlink:href="#DejaVuSans-30" x="190.869141"/>
       <use xlink:href="#DejaVuSans-30" x="254.492188"/>
      </g>
     </g>
    </g>
    <g id="ytick_7">
     <g id="line2d_13">
      <g>
       <use xlink:href="#m6af7657230" x="57.6" y="100.331356" style="stroke: #000000; stroke-width: 0.8"/>
      </g>
     </g>
     <g id="text_14">
      <!-- 12000 -->
      <g transform="translate(18.7875 104.130575) scale(0.1 -0.1)">
       <use xlink:href="#DejaVuSans-31"/>
       <use xlink:href="#DejaVuSans-32" x="63.623047"/>
       <use xlink:href="#DejaVuSans-30" x="127.246094"/>
       <use xlink:href="#DejaVuSans-30" x="190.869141"/>
       <use xlink:href="#DejaVuSans-30" x="254.492188"/>
      </g>
     </g>
    </g>
    <g id="ytick_8">
     <g id="line2d_14">
      <g>
       <use xlink:href="#m6af7657230" x="57.6" y="67.18936" style="stroke: #000000; stroke-width: 0.8"/>
      </g>
     </g>
     <g id="text_15">
      <!-- 14000 -->
      <g transform="translate(18.7875 70.988579) scale(0.1 -0.1)">
       <use xlink:href="#DejaVuSans-31"/>
       <use xlink:href="#DejaVuSans-34" x="63.623047"/>
       <use xlink:href="#DejaVuSans-30" x="127.246094"/>
       <use xlink:href="#DejaVuSans-30" x="190.869141"/>
       <use xlink:href="#DejaVuSans-30" x="254.492188"/>
      </g>
     </g>
    </g>
    <g id="text_16">
     <!-- Salary -->
     <g transform="translate(12.707812 190.23425) rotate(-90) scale(0.1 -0.1)">
      <defs>
       <path id="DejaVuSans-53" d="M 3425 4513 
L 3425 3897 
Q 3066 4069 2747 4153 
Q 2428 4238 2131 4238 
Q 1616 4238 1336 4038 
Q 1056 3838 1056 3469 
Q 1056 3159 1242 3001 
Q 1428 2844 1947 2747 
L 2328 2669 
Q 3034 2534 3370 2195 
Q 3706 1856 3706 1288 
Q 3706 609 3251 259 
Q 2797 -91 1919 -91 
Q 1588 -91 1214 -16 
Q 841 59 441 206 
L 441 856 
Q 825 641 1194 531 
Q 1563 422 1919 422 
Q 2459 422 2753 634 
Q 3047 847 3047 1241 
Q 3047 1584 2836 1778 
Q 2625 1972 2144 2069 
L 1759 2144 
Q 1053 2284 737 2584 
Q 422 2884 422 3419 
Q 422 4038 858 4394 
Q 1294 4750 2059 4750 
Q 2388 4750 2728 4690 
Q 3069 4631 3425 4513 
z
" transform="scale(0.015625)"/>
       <path id="DejaVuSans-61" d="M 2194 1759 
Q 1497 1759 1228 1600 
Q 959 1441 959 1056 
Q 959 750 1161 570 
Q 1363 391 1709 391 
Q 2188 391 2477 730 
Q 2766 1069 2766 1631 
L 2766 1759 
L 2194 1759 
z
M 3341 1997 
L 3341 0 
L 2766 0 
L 2766 531 
Q 2569 213 2275 61 
Q 1981 -91 1556 -91 
Q 1019 -91 701 211 
Q 384 513 384 1019 
Q 384 1609 779 1909 
Q 1175 2209 1959 2209 
L 2766 2209 
L 2766 2266 
Q 2766 2663 2505 2880 
Q 2244 3097 1772 3097 
Q 1472 3097 1187 3025 
Q 903 2953 641 2809 
L 641 3341 
Q 956 3463 1253 3523 
Q 1550 3584 1831 3584 
Q 2591 3584 2966 3190 
Q 3341 2797 3341 1997 
z
" transform="scale(0.015625)"/>
       <path id="DejaVuSans-6c" d="M 603 4863 
L 1178 4863 
L 1178 0 
L 603 0 
L 603 4863 
z
" transform="scale(0.015625)"/>
       <path id="DejaVuSans-72" d="M 2631 2963 
Q 2534 3019 2420 3045 
Q 2306 3072 2169 3072 
Q 1681 3072 1420 2755 
Q 1159 2438 1159 1844 
L 1159 0 
L 581 0 
L 581 3500 
L 1159 3500 
L 1159 2956 
Q 1341 3275 1631 3429 
Q 1922 3584 2338 3584 
Q 2397 3584 2469 3576 
Q 2541 3569 2628 3553 
L 2631 2963 
z
" transform="scale(0.015625)"/>
       <path id="DejaVuSans-79" d="M 2059 -325 
Q 1816 -950 1584 -1140 
Q 1353 -1331 966 -1331 
L 506 -1331 
L 506 -850 
L 844 -850 
Q 1081 -850 1212 -737 
Q 1344 -625 1503 -206 
L 1606 56 
L 191 3500 
L 800 3500 
L 1894 763 
L 2988 3500 
L 3597 3500 
L 2059 -325 
z
" transform="scale(0.015625)"/>
      </defs>
      <use xlink:href="#DejaVuSans-53"/>
      <use xlink:href="#DejaVuSans-61" x="63.476562"/>
      <use xlink:href="#DejaVuSans-6c" x="124.755859"/>
      <use xlink:href="#DejaVuSans-61" x="152.539062"/>
      <use xlink:href="#DejaVuSans-72" x="213.818359"/>
      <use xlink:href="#DejaVuSans-79" x="254.931641"/>
     </g>
    </g>
   </g>
   <g id="line2d_15">
    <path d="M 152.960003 278.899469 
L 73.832727 283.068999 
L 398.487273 265.961661 
L 154.705453 278.807494 
" clip-path="url(#p8994ee7b34)" style="fill: none; stroke: #ff0000; stroke-width: 1.5; stroke-linecap: square"/>
   </g>
   <g id="patch_3">
    <path d="M 57.6 307.584 
L 57.6 41.472 
" style="fill: none; stroke: #000000; stroke-width: 0.8; stroke-linejoin: miter; stroke-linecap: square"/>
   </g>
   <g id="patch_4">
    <path d="M 414.72 307.584 
L 414.72 41.472 
" style="fill: none; stroke: #000000; stroke-width: 0.8; stroke-linejoin: miter; stroke-linecap: square"/>
   </g>
   <g id="patch_5">
    <path d="M 57.6 307.584 
L 414.72 307.584 
" style="fill: none; stroke: #000000; stroke-width: 0.8; stroke-linejoin: miter; stroke-linecap: square"/>
   </g>
   <g id="patch_6">
    <path d="M 57.6 41.472 
L 414.72 41.472 
" style="fill: none; stroke: #000000; stroke-width: 0.8; stroke-linejoin: miter; stroke-linecap: square"/>
   </g>
   <g id="text_17">
    <!-- OLS Regression Line -->
    <g transform="translate(175.15125 35.472) scale(0.12 -0.12)">
     <defs>
      <path id="DejaVuSans-4c" d="M 628 4666 
L 1259 4666 
L 1259 531 
L 3531 531 
L 3531 0 
L 628 0 
L 628 4666 
z
" transform="scale(0.015625)"/>
      <path id="DejaVuSans-20" transform="scale(0.015625)"/>
      <path id="DejaVuSans-65" d="M 3597 1894 
L 3597 1613 
L 953 1613 
Q 991 1019 1311 708 
Q 1631 397 2203 397 
Q 2534 397 2845 478 
Q 3156 559 3463 722 
L 3463 178 
Q 3153 47 2828 -22 
Q 2503 -91 2169 -91 
Q 1331 -91 842 396 
Q 353 884 353 1716 
Q 353 2575 817 3079 
Q 1281 3584 2069 3584 
Q 2775 3584 3186 3129 
Q 3597 2675 3597 1894 
z
M 3022 2063 
Q 3016 2534 2758 2815 
Q 2500 3097 2075 3097 
Q 1594 3097 1305 2825 
Q 1016 2553 972 2059 
L 3022 2063 
z
" transform="scale(0.015625)"/>
      <path id="DejaVuSans-67" d="M 2906 1791 
Q 2906 2416 2648 2759 
Q 2391 3103 1925 3103 
Q 1463 3103 1205 2759 
Q 947 2416 947 1791 
Q 947 1169 1205 825 
Q 1463 481 1925 481 
Q 2391 481 2648 825 
Q 2906 1169 2906 1791 
z
M 3481 434 
Q 3481 -459 3084 -895 
Q 2688 -1331 1869 -1331 
Q 1566 -1331 1297 -1286 
Q 1028 -1241 775 -1147 
L 775 -588 
Q 1028 -725 1275 -790 
Q 1522 -856 1778 -856 
Q 2344 -856 2625 -561 
Q 2906 -266 2906 331 
L 2906 616 
Q 2728 306 2450 153 
Q 2172 0 1784 0 
Q 1141 0 747 490 
Q 353 981 353 1791 
Q 353 2603 747 3093 
Q 1141 3584 1784 3584 
Q 2172 3584 2450 3431 
Q 2728 3278 2906 2969 
L 2906 3500 
L 3481 3500 
L 3481 434 
z
" transform="scale(0.015625)"/>
      <path id="DejaVuSans-73" d="M 2834 3397 
L 2834 2853 
Q 2591 2978 2328 3040 
Q 2066 3103 1784 3103 
Q 1356 3103 1142 2972 
Q 928 2841 928 2578 
Q 928 2378 1081 2264 
Q 1234 2150 1697 2047 
L 1894 2003 
Q 2506 1872 2764 1633 
Q 3022 1394 3022 966 
Q 3022 478 2636 193 
Q 2250 -91 1575 -91 
Q 1294 -91 989 -36 
Q 684 19 347 128 
L 347 722 
Q 666 556 975 473 
Q 1284 391 1588 391 
Q 1994 391 2212 530 
Q 2431 669 2431 922 
Q 2431 1156 2273 1281 
Q 2116 1406 1581 1522 
L 1381 1569 
Q 847 1681 609 1914 
Q 372 2147 372 2553 
Q 372 3047 722 3315 
Q 1072 3584 1716 3584 
Q 2034 3584 2315 3537 
Q 2597 3491 2834 3397 
z
" transform="scale(0.015625)"/>
      <path id="DejaVuSans-69" d="M 603 3500 
L 1178 3500 
L 1178 0 
L 603 0 
L 603 3500 
z
M 603 4863 
L 1178 4863 
L 1178 4134 
L 603 4134 
L 603 4863 
z
" transform="scale(0.015625)"/>
      <path id="DejaVuSans-6f" d="M 1959 3097 
Q 1497 3097 1228 2736 
Q 959 2375 959 1747 
Q 959 1119 1226 758 
Q 1494 397 1959 397 
Q 2419 397 2687 759 
Q 2956 1122 2956 1747 
Q 2956 2369 2687 2733 
Q 2419 3097 1959 3097 
z
M 1959 3584 
Q 2709 3584 3137 3096 
Q 3566 2609 3566 1747 
Q 3566 888 3137 398 
Q 2709 -91 1959 -91 
Q 1206 -91 779 398 
Q 353 888 353 1747 
Q 353 2609 779 3096 
Q 1206 3584 1959 3584 
z
" transform="scale(0.015625)"/>
      <path id="DejaVuSans-6e" d="M 3513 2113 
L 3513 0 
L 2938 0 
L 2938 2094 
Q 2938 2591 2744 2837 
Q 2550 3084 2163 3084 
Q 1697 3084 1428 2787 
Q 1159 2491 1159 1978 
L 1159 0 
L 581 0 
L 581 3500 
L 1159 3500 
L 1159 2956 
Q 1366 3272 1645 3428 
Q 1925 3584 2291 3584 
Q 2894 3584 3203 3211 
Q 3513 2838 3513 2113 
z
" transform="scale(0.015625)"/>
     </defs>
     <use xlink:href="#DejaVuSans-4f"/>
     <use xlink:href="#DejaVuSans-4c" x="78.710938"/>
     <use xlink:href="#DejaVuSans-53" x="134.423828"/>
     <use xlink:href="#DejaVuSans-20" x="197.900391"/>
     <use xlink:href="#DejaVuSans-52" x="229.6875"/>
     <use xlink:href="#DejaVuSans-65" x="294.669922"/>
     <use xlink:href="#DejaVuSans-67" x="356.193359"/>
     <use xlink:href="#DejaVuSans-72" x="419.669922"/>
     <use xlink:href="#DejaVuSans-65" x="458.533203"/>
     <use xlink:href="#DejaVuSans-73" x="520.056641"/>
     <use xlink:href="#DejaVuSans-73" x="572.15625"/>
     <use xlink:href="#DejaVuSans-69" x="624.255859"/>
     <use xlink:href="#DejaVuSans-6f" x="652.039062"/>
     <use xlink:href="#DejaVuSans-6e" x="713.220703"/>
     <use xlink:href="#DejaVuSans-20" x="776.599609"/>
     <use xlink:href="#DejaVuSans-4c" x="808.386719"/>
     <use xlink:href="#DejaVuSans-69" x="864.099609"/>
     <use xlink:href="#DejaVuSans-6e" x="891.882812"/>
     <use xlink:href="#DejaVuSans-65" x="955.261719"/>
    </g>
   </g>
  </g>
 </g>
 <defs>
  <clipPath id="p8994ee7b34">
   <rect x="57.6" y="41.472" width="357.12" height="266.112"/>
  </clipPath>
 </defs>
</svg>
